[h264 @ 0x5639735d5880] Reinit context to 1280x720, pix_fmt: yuv420p
Input #0, mov,mp4,m4a,3gp,3g2,mj2, from '/var/www/html/project/media/video/original/VID-20250725-WA0106.mp4':
  Metadata:
    major_brand     : mp42
    minor_version   : 0
    compatible_brands: mp42isom
  Duration: 00:00:50.53, start: 0.000000, bitrate: 2615 kb/s
    Stream #0:0(und): Video: h264 (High), 1 reference frame (avc1 / 0x31637661), yuv420p(tv, bt709, left), 1280x720, 2549 kb/s, 30 fps, 30 tbr, 30k tbn, 60k tbc (default)
    Stream #0:1(und): Audio: aac (LC) (mp4a / 0x6134706D), 44100 Hz, stereo, fltp, 63 kb/s (default)
[h264 @ 0x5639735db080] Reinit context to 1280x720, pix_fmt: yuv420p
Input #1, mov,mp4,m4a,3gp,3g2,mj2, from '/var/www/html/project/static/images/templates/Codino.mp4':
  Metadata:
    major_brand     : mp42
    minor_version   : 1
    compatible_brands: isommp41mp42
    creation_time   : 2021-07-11T07:02:58.000000Z
  Duration: 00:00:02.00, start: 0.000000, bitrate: 1007 kb/s
    Stream #1:0(ita): Audio: aac (LC) (mp4a / 0x6134706D), 44100 Hz, stereo, fltp, 102 kb/s (default)
    Metadata:
      creation_time   : 2021-07-11T07:02:58.000000Z
      handler_name    : Core Media Audio
    Stream #1:1(und): Video: h264 (High), 1 reference frame (avc1 / 0x31637661), yuv420p(tv, bt709, progressive, left), 1280x720 [SAR 1:1 DAR 16:9], 813 kb/s, 25 fps, 25 tbr, 25k tbn, 50k tbc (default)
    Metadata:
      creation_time   : 2021-07-11T07:02:58.000000Z
      handler_name    : Core Media Video
[Parsed_scale_0 @ 0x56397367f280] w:1280 h:720 flags:'bilinear' interl:0
[Parsed_scale_2 @ 0x563973680340] w:1280 h:720 flags:'bilinear' interl:0
Stream mapping:
  Stream #0:0 (h264) -> scale
  Stream #0:1 (aac) -> concat:in0:a0
  Stream #1:0 (aac) -> concat:in1:a0
  Stream #1:1 (h264) -> scale
  concat:out:v0 -> Stream #0:0 (libx264)
  concat:out:a0 -> Stream #0:1 (aac)
Press [q] to stop, [?] for help
[h264 @ 0x563973692200] Reinit context to 1280x720, pix_fmt: yuv420p
[h264 @ 0x563973a4b1c0] Reinit context to 1280x720, pix_fmt: yuv420p
[Parsed_scale_0 @ 0x563974865780] w:1280 h:720 flags:'bilinear' interl:0
[Parsed_scale_2 @ 0x56397486dbc0] w:1280 h:720 flags:'bilinear' interl:0
[graph 0 input from stream 0:0 @ 0x563974870b00] w:1280 h:720 pixfmt:yuv420p tb:1/30000 fr:30/1 sar:0/1 sws_param:flags=2
[graph 0 input from stream 1:1 @ 0x563974871b80] w:1280 h:720 pixfmt:yuv420p tb:1/25000 fr:25/1 sar:1/1 sws_param:flags=2
[graph_0_in_0_1 @ 0x563974872b40] tb:1/44100 samplefmt:fltp samplerate:44100 chlayout:0x3
[graph_0_in_1_0 @ 0x563974873c80] tb:1/44100 samplefmt:fltp samplerate:44100 chlayout:0x3
[Parsed_scale_0 @ 0x563974865780] w:1280 h:720 fmt:yuv420p sar:0/1 -> w:1280 h:720 fmt:yuv420p sar:0/1 flags:0x2
[Parsed_setsar_1 @ 0x56397486d700] w:1280 h:720 sar:0/1 dar:16/9 -> sar:1/1 dar:16/9
[Parsed_scale_2 @ 0x56397486dbc0] w:1280 h:720 fmt:yuv420p sar:1/1 -> w:1280 h:720 fmt:yuv420p sar:1/1 flags:0x2
[Parsed_setsar_3 @ 0x56397486de00] w:1280 h:720 sar:1/1 dar:16/9 -> sar:1/1 dar:16/9
[libx264 @ 0x563973612780] using SAR=1/1
[libx264 @ 0x563973612780] using cpu capabilities: MMX2 SSE2Fast SSSE3 SSE4.2 AVX FMA3 BMI2 AVX2
[libx264 @ 0x563973612780] profile High, level 3.1
[libx264 @ 0x563973612780] 264 - core 155 r2917 0a84d98 - H.264/MPEG-4 AVC codec - Copyleft 2003-2018 - http://www.videolan.org/x264.html - options: cabac=1 ref=1 deblock=1:0:0 analyse=0x3:0x113 me=hex subme=2 psy=1 psy_rd=1.00:0.00 mixed_ref=0 me_range=16 chroma_me=1 trellis=0 8x8dct=1 cqm=0 deadzone=21,11 fast_pskip=1 chroma_qp_offset=0 threads=22 lookahead_threads=5 sliced_threads=0 nr=0 decimate=1 interlaced=0 bluray_compat=0 constrained_intra=0 bframes=3 b_pyramid=2 b_adapt=1 b_bias=0 direct=1 weightb=1 open_gop=0 weightp=1 keyint=250 keyint_min=25 scenecut=40 intra_refresh=0 rc_lookahead=10 rc=crf mbtree=1 crf=18.0 qcomp=0.60 qpmin=0 qpmax=69 qpstep=4 ip_ratio=1.40 aq=1:1.00
Output #0, mp4, to '/var/www/html/project/media/video/watermarks/VID-20250725-WA0106.mp4':
  Metadata:
    major_brand     : mp42
    minor_version   : 0
    compatible_brands: mp42isom
    encoder         : Lavf58.29.100
    Stream #0:0: Video: h264 (libx264), 1 reference frame (avc1 / 0x31637661), yuv420p(progressive), 1280x720 [SAR 1:1 DAR 16:9], q=-1--1, 30 fps, 15360 tbn, 30 tbc (default)
    Metadata:
      encoder         : Lavc58.54.100 libx264
    Side data:
      cpb: bitrate max/min/avg: 0/0/0 buffer size: 0 vbv_delay: -1
    Stream #0:1: Audio: aac (LC) (mp4a / 0x6134706D), 44100 Hz, stereo, fltp, delay 1024, 128 kb/s (default)
    Metadata:
      encoder         : Lavc58.54.100 aac
[Parsed_concat_4 @ 0x56397486eb80] EOF on in0:v0, 1 streams left in segment.
[Parsed_concat_4 @ 0x56397486eb80] EOF on in0:a0, 0 streams left in segment.
[Parsed_concat_4 @ 0x56397486eb80] Segment finished at pts=50533333
[Parsed_concat_4 @ 0x56397486eb80] EOF on in1:a0, 1 streams left in segment.
[Parsed_concat_4 @ 0x56397486eb80] EOF on in1:v0, 0 streams left in segment.
[Parsed_concat_4 @ 0x56397486eb80] Segment finished at pts=52552018
No more output streams to write to, finishing.
frame= 1566 fps= 73 q=-1.0 Lsize=   21455kB time=00:00:52.56 bitrate=3343.3kbits/s speed=2.44x    
[AVIOContext @ 0x5639735d3c00] Statistics: 0 seeks, 43 writeouts
video:20584kB audio:816kB subtitle:0kB other streams:0kB global headers:0kB muxing overhead: 0.259161%
Input file #0 (/var/www/html/project/media/video/original/VID-20250725-WA0106.mp4):
  Input stream #0:0 (video): 1516 packets read (16103353 bytes); 1516 frames decoded; 
  Input stream #0:1 (audio): 2175 packets read (401023 bytes); 2175 frames decoded (2227200 samples); 
  Total: 3691 packets (16504376 bytes) demuxed
Input file #1 (/var/www/html/project/static/images/templates/Codino.mp4):
  Input stream #1:0 (audio): 89 packets read (26579 bytes); 87 frames decoded (89024 samples); 
  Input stream #1:1 (video): 50 packets read (203365 bytes); 50 frames decoded; 
  Total: 139 packets (229944 bytes) demuxed
Output file #0 (/var/www/html/project/media/video/watermarks/VID-20250725-WA0106.mp4):
  Output stream #0:0 (video): 1566 frames encoded; 1566 packets muxed (21077556 bytes); 
  Output stream #0:1 (audio): 2264 frames encoded (2317544 samples); 2265 packets muxed (835106 bytes); 
  Total: 3831 packets (21912662 bytes) muxed
[AVIOContext @ 0x563973686cc0] Statistics: 2 seeks, 87 writeouts
[libx264 @ 0x563973612780] frame I:7     Avg QP:14.35  size: 65115
[libx264 @ 0x563973612780] frame P:592   Avg QP:17.09  size: 22293
[libx264 @ 0x563973612780] frame B:967   Avg QP:19.94  size:  7677
[libx264 @ 0x563973612780] consecutive B-frames: 13.2% 10.0% 10.2% 66.7%
[libx264 @ 0x563973612780] mb I  I16..4: 22.0% 32.7% 45.3%
[libx264 @ 0x563973612780] mb P  I16..4:  9.5% 17.9%  4.7%  P16..4: 25.8% 12.1%  7.5%  0.0%  0.0%    skip:22.5%
[libx264 @ 0x563973612780] mb B  I16..4:  1.9%  2.5%  0.3%  B16..8: 23.6%  8.7%  1.4%  direct:10.5%  skip:51.0%  L0:42.2% L1:39.1% BI:18.7%
[libx264 @ 0x563973612780] 8x8 transform intra:54.6% inter:51.1%
[libx264 @ 0x563973612780] coded y,uvDC,uvAC intra: 52.2% 44.6% 8.0% inter: 14.0% 11.9% 0.3%
[libx264 @ 0x563973612780] i16 v,h,dc,p: 42% 37% 15%  5%
[libx264 @ 0x563973612780] i8 v,h,dc,ddl,ddr,vr,hd,vl,hu: 13% 54% 19%  2%  2%  1%  4%  1%  4%
[libx264 @ 0x563973612780] i4 v,h,dc,ddl,ddr,vr,hd,vl,hu: 12% 53% 11%  3%  4%  2%  7%  2%  6%
[libx264 @ 0x563973612780] i8c dc,h,v,p: 55% 28% 14%  3%
[libx264 @ 0x563973612780] Weighted P-Frames: Y:2.4% UV:0.2%
[libx264 @ 0x563973612780] kb/s:3209.68
[aac @ 0x56397366f440] Qavg: 1081.646
[AVIOContext @ 0x5639735dcac0] Statistics: 50662170 bytes read, 1248 seeks
[AVIOContext @ 0x56397369edc0] Statistics: 1530915 bytes read, 42 seeks
